#!OML:ASF F:\VICON\USERDATA\INSTALL\rory3\rory3.ASF
:FULLY-SPECIFIED
:DEGREES
1
root -8.14365 18.6133 5.90488 1.73629 -12.3149 -0.427221
lowerback 3.55737 -0.490277 -0.716794
upperback 0.449051 -0.691555 -0.57887
thorax -1.53185 -0.342867 -0.158141
lowerneck -8.46188 -6.14779 -11.2326
upperneck 10.6227 -7.8879 8.63292
head 5.37511 -3.79621 3.92819
rclavicle 4.39563e-014 7.55382e-015
rhumerus -34.3957 -7.13163 -78.6256
rradius 25.7524
rwrist 18.7259
rhand -27.7454 2.04589
rfingers 7.12502
rthumb -1.14001 -27.9308
lclavicle 4.39563e-014 7.55382e-015
lhumerus -35.8107 16.6742 74.272
lradius 25.8234
lwrist -13.0178
lhand -20.5967 24.96
lfingers 7.12502
lthumb 5.76374 54.8616
rfemur -5.08001 22.0561 19.5486
rtibia 25.8378
rfoot -19.7633 -12.3056
rtoes -3.65279
lfemur -3.25424 -6.50574 -20.5324
ltibia 23.7278
lfoot -19.9994 14.9871
ltoes -6.87313
2
root -8.14003 18.6131 5.89419 1.69063 -12.1796 -0.402472
lowerback 3.60283 -0.474439 -0.709396
upperback 0.489273 -0.670694 -0.599119
thorax -1.51643 -0.332651 -0.183838
lowerneck -8.59266 -6.08294 -11.149
upperneck 10.8188 -7.7963 8.54325
head 5.44162 -3.75084 3.89097
rclavicle -1.14301e-015 -4.77083e-015
rhumerus -34.3951 -7.54437 -78.3846
rradius 25.3822
rwrist 19.0118
rhand -27.5811 1.88929
rfingers 7.12502
rthumb -0.981372 -28.0882
lclavicle -1.14301e-015 -4.77083e-015
lhumerus -35.7007 16.6798 74.2588
lradius 25.7438
lwrist -12.932
lhand -20.8072 24.6342
lfingers 7.12502
lthumb 5.56045 54.5413
rfemur -5.06835 21.9691 19.5372
rtibia 25.8647
rfoot -19.7642 -12.3593
rtoes -3.69868
lfemur -3.23539 -6.39412 -20.5112
ltibia 23.6959
lfoot -19.7454 14.6319
ltoes -6.69091
3
root -8.13343 18.6119 5.8882 1.5222 -11.9348 -0.377506
lowerback 3.71192 -0.481392 -0.62861
upperback 0.557843 -0.677836 -0.623989
thorax -1.50842 -0.336833 -0.253619
lowerneck -8.70335 -5.95792 -11.0888
upperneck 11.0723 -7.62601 8.46141
head 5.51606 -3.66841 3.86795
rclavicle -1.28465e-014 5.1684e-015
rhumerus -34.4644 -7.85746 -78.1293
rradius 25.0307
rwrist 19.3489
rhand -28.0546 3.10768
rfingers 7.12502
rthumb -1.43864 -26.8672
lclavicle -1.28465e-014 5.1684e-015
lhumerus -35.662 16.4596 74.3658
lradius 25.8476
lwrist -12.6596
lhand -21.0439 24.8709
lfingers 7.12502
lthumb 5.33201 54.7838
rfemur -4.83982 21.7971 19.5789
rtibia 25.841
rfoot -19.7974 -12.411
rtoes -3.59706
lfemur -3.09905 -6.65979 -20.5363
ltibia 23.6672
lfoot -20.0358 14.4981
ltoes -5.78761
4
root -8.12968 18.6136 5.87927 1.42609 -11.7193 -0.33542
lowerback 3.81409 -0.472742 -0.614446
upperback 0.564027 -0.666966 -0.634373
thorax -1.55955 -0.331409 -0.271849
lowerneck -8.63351 -5.81425 -11.1079
upperneck 11.2037 -7.43713 8.42257
head 5.52502 -3.5818 3.87786
rclavicle -1.49089e-016 1.23246e-014
rhumerus -34.576 -7.96245 -77.9572
rradius 24.8146
rwrist 19.4322
rhand -28.1152 2.79941
rfingers 7.12502
rthumb -1.49717 -27.1751
lclavicle -1.49089e-016 1.23246e-014
lhumerus -35.6999 16.3178 74.4095
lradius 26.0092
lwrist -12.5308
lhand -21.0101 25.0442
lfingers 7.12502
lthumb 5.36455 54.9563
rfemur -4.73228 21.666 19.5777
rtibia 25.8428
rfoot -19.7871 -12.4984
rtoes -3.55533
lfemur -3.05612 -6.79559 -20.5612
ltibia 23.6423
lfoot -19.9732 14.3233
ltoes -5.47302
5
root -8.13002 18.6163 5.8659 1.39938 -11.5147 -0.317236
lowerback 3.89689 -0.452494 -0.630649
upperback 0.526902 -0.641963 -0.639746
thorax -1.64386 -0.318629 -0.268647
lowerneck -8.41181 -5.66939 -11.0628
upperneck 11.2011 -7.25788 8.33848
head 5.46344 -3.50326 3.86557
rclavicle -1.82633e-014 1.98785e-015
rhumerus -34.7329 -8.12066 -77.8007
rradius 24.6489
rwrist 19.5244
rhand -28.4252 4.23859
rfingers 7.12502
rthumb -1.79662 -25.7336
lclavicle -1.82633e-014 1.98785e-015
lhumerus -35.7369 16.3066 74.3324
lradius 26.0978
lwrist -12.59
lhand -20.6413 24.9642
lfingers 7.12502
lthumb 5.72071 54.867
rfemur -4.72596 21.5991 19.5924
rtibia 25.84
rfoot -19.7836 -12.6265
rtoes -3.42147
lfemur -3.10126 -6.71501 -20.5086
ltibia 23.6289
lfoot -19.5898 13.9938
ltoes -5.80281
6
root -8.13183 18.6152 5.85127 1.3727 -11.306 -0.340836
lowerback 3.91662 -0.426473 -0.5981
upperback 0.547024 -0.606312 -0.659803
thorax -1.63481 -0.301119 -0.30926
lowerneck -8.30296 -5.51801 -10.9254
upperneck 11.2501 -7.06928 8.22691
head 5.43198 -3.41529 3.82744
rclavicle 1.80397e-014 -7.55382e-015
rhumerus -34.7777 -8.47177 -77.6346
rradius 24.3292
rwrist 19.8138
rhand -28.0563 3.59028
rfingers 7.12502
rthumb -1.44025 -26.3846
lclavicle 1.80397e-014 -7.55382e-015
lhumerus -35.5629 16.3447 74.2144
lradius 25.999
lwrist -12.762
lhand -20.1126 25.1105
lfingers 7.12502
lthumb 6.23111 54.9988
rfemur -4.71145 21.6015 19.6736
rtibia 25.8429
rfoot -19.8163 -12.784
rtoes -3.16391
lfemur -3.16807 -6.74479 -20.3963
ltibia 23.6449
lfoot -19.7167 13.6875
ltoes -5.43591
